{
  "accessors": [
    {
      "bufferView": 2,
      "componentType": 5126,
      "count": 639,
      "max": [
        0.4824695587158203,
        1.128866195678711,
        1.1920928955078125e-07
      ],
      "min": [
        -3.4474081993103027,
        -0.8962091207504272,
        -1.7852122783660889
      ],
      "type": "VEC3"
    },
    {
      "bufferView": 2,
      "byteOffset": 7668,
      "componentType": 5126,
      "count": 639,
      "max": [
        1.0,
        1.0,
        1.0
      ],
      "min": [
        -1.0,
        -1.0,
        -1.0
      ],
      "type": "VEC3"
    },
    {
      "bufferView": 1,
      "componentType": 5126,
      "count": 639,
      "max": [
        0.5141111016273499,
        0.9856328368186951
      ],
      "min": [
        0.014785468578338623,
        0.041642364114522934
      ],
      "type": "VEC2"
    },
    {
      "bufferView": 0,
      "componentType": 5125,
      "count": 1140,
      "type": "SCALAR"
    },
    {
      "bufferView": 2,
      "byteOffset": 15336,
      "componentType": 5126,
      "count": 24,
      "max": [
        1.0,
        1.0,
        1.0
      ],
      "min": [
        -1.0,
        -0.9999998807907104,
        -1.0
      ],
      "type": "VEC3"
    },
    {
      "bufferView": 2,
      "byteOffset": 15624,
      "componentType": 5126,
      "count": 24,
      "max": [
        1.0,
        1.0,
        0.9950372576713562
      ],
      "min": [
        -1.0,
        -1.0,
        -0.9950372576713562
      ],
      "type": "VEC3"
    },
    {
      "bufferView": 1,
      "byteOffset": 5112,
      "componentType": 5126,
      "count": 24,
      "max": [
        0.6133332252502441,
        0.8960682153701782
      ],
      "min": [
        0.6133332252502441,
        0.8960682153701782
      ],
      "type": "VEC2"
    },
    {
      "bufferView": 0,
      "byteOffset": 4560,
      "componentType": 5125,
      "count": 36,
      "type": "SCALAR"
    },
    {
      "bufferView": 2,
      "byteOffset": 15912,
      "componentType": 5126,
      "count": 24,
      "max": [
        1.0,
        1.0,
        1.0
      ],
      "min": [
        -1.0,
        -0.9999998807907104,
        -1.0
      ],
      "type": "VEC3"
    },
    {
      "bufferView": 2,
      "byteOffset": 16200,
      "componentType": 5126,
      "count": 24,
      "max": [
        1.0,
        1.0,
        0.9950372576713562
      ],
      "min": [
        -1.0,
        -1.0,
        -0.9950372576713562
      ],
      "type": "VEC3"
    },
    {
      "bufferView": 1,
      "byteOffset": 5304,
      "componentType": 5126,
      "count": 24,
      "max": [
        0.6133332252502441,
        0.8960682153701782
      ],
      "min": [
        0.6133332252502441,
        0.8960682153701782
      ],
      "type": "VEC2"
    },
    {
      "bufferView": 0,
      "byteOffset": 4704,
      "componentType": 5125,
      "count": 36,
      "type": "SCALAR"
    },
    {
      "bufferView": 2,
      "byteOffset": 16488,
      "componentType": 5126,
      "count": 170,
      "max": [
        6.842022895812988,
        0.08894334733486176,
        4.256713390350342
      ],
      "min": [
        -20.798479080200195,
        -0.08894333243370056,
        -0.3170989453792572
      ],
      "type": "VEC3"
    },
    {
      "bufferView": 2,
      "byteOffset": 18528,
      "componentType": 5126,
      "count": 170,
      "max": [
        1.0,
        1.0,
        1.0
      ],
      "min": [
        -1.0,
        -1.0,
        -1.0
      ],
      "type": "VEC3"
    },
    {
      "bufferView": 1,
      "byteOffset": 5496,
      "componentType": 5126,
      "count": 170,
      "max": [
        0.6133332252502441,
        0.8960682153701782
      ],
      "min": [
        0.6133332252502441,
        0.8960682153701782
      ],
      "type": "VEC2"
    },
    {
      "bufferView": 0,
      "byteOffset": 4848,
      "componentType": 5125,
      "count": 264,
      "type": "SCALAR"
    },
    {
      "bufferView": 2,
      "byteOffset": 20568,
      "componentType": 5126,
      "count": 84,
      "max": [
        1.0,
        25.97618865966797,
        16.15987777709961
      ],
      "min": [
        0.10560581088066101,
        -1.0,
        -1.0
      ],
      "type": "VEC3"
    },
    {
      "bufferView": 2,
      "byteOffset": 21576,
      "componentType": 5126,
      "count": 84,
      "max": [
        1.0,
        1.0,
        1.0
      ],
      "min": [
        -1.0,
        -1.0,
        -1.0
      ],
      "type": "VEC3"
    },
    {
      "bufferView": 1,
      "byteOffset": 6856,
      "componentType": 5126,
      "count": 84,
      "max": [
        0.6181175708770752,
        0.8888037204742432
      ],
      "min": [
        0.6181175708770752,
        0.8888037204742432
      ],
      "type": "VEC2"
    },
    {
      "bufferView": 0,
      "byteOffset": 5904,
      "componentType": 5125,
      "count": 162,
      "type": "SCALAR"
    },
    {
      "bufferView": 2,
      "byteOffset": 22584,
      "componentType": 5126,
      "count": 24,
      "max": [
        1.0,
        1.0,
        1.0
      ],
      "min": [
        -1.0,
        -1.0,
        -1.0
      ],
      "type": "VEC3"
    },
    {
      "bufferView": 2,
      "byteOffset": 22872,
      "componentType": 5126,
      "count": 24,
      "max": [
        1.0,
        1.0,
        1.0
      ],
      "min": [
        -1.0,
        -1.0,
        -1.0
      ],
      "type": "VEC3"
    },
    {
      "bufferView": 1,
      "byteOffset": 7528,
      "componentType": 5126,
      "count": 24,
      "max": [
        0.6673332452774048,
        0.7239312529563904
      ],
      "min": [
        0.6673332452774048,
        0.7239312529563904
      ],
      "type": "VEC2"
    },
    {
      "bufferView": 0,
      "byteOffset": 6552,
      "componentType": 5125,
      "count": 36,
      "type": "SCALAR"
    },
    {
      "bufferView": 2,
      "byteOffset": 23160,
      "componentType": 5126,
      "count": 24,
      "max": [
        1.0,
        1.0,
        1.0
      ],
      "min": [
        -1.0,
        -1.0,
        -1.0
      ],
      "type": "VEC3"
    },
    {
      "bufferView": 2,
      "byteOffset": 23448,
      "componentType": 5126,
      "count": 24,
      "max": [
        1.0,
        1.0,
        1.0
      ],
      "min": [
        -1.0,
        -1.0,
        -1.0
      ],
      "type": "VEC3"
    },
    {
      "bufferView": 1,
      "byteOffset": 7720,
      "componentType": 5126,
      "count": 24,
      "max": [
        0.6673332452774048,
        0.7239312529563904
      ],
      "min": [
        0.6673332452774048,
        0.7239312529563904
      ],
      "type": "VEC2"
    },
    {
      "bufferView": 0,
      "byteOffset": 6696,
      "componentType": 5125,
      "count": 36,
      "type": "SCALAR"
    },
    {
      "bufferView": 2,
      "byteOffset": 23736,
      "componentType": 5126,
      "count": 24,
      "max": [
        1.0,
        1.0,
        1.0
      ],
      "min": [
        -1.0,
        -1.0,
        -1.0
      ],
      "type": "VEC3"
    },
    {
      "bufferView": 2,
      "byteOffset": 24024,
      "componentType": 5126,
      "count": 24,
      "max": [
        1.0,
        1.0,
        1.0
      ],
      "min": [
        -1.0,
        -1.0,
        -1.0
      ],
      "type": "VEC3"
    },
    {
      "bufferView": 1,
      "byteOffset": 7912,
      "componentType": 5126,
      "count": 24,
      "max": [
        0.6673332452774048,
        0.7239312529563904
      ],
      "min": [
        0.6673332452774048,
        0.7239312529563904
      ],
      "type": "VEC2"
    },
    {
      "bufferView": 0,
      "byteOffset": 6840,
      "componentType": 5125,
      "count": 36,
      "type": "SCALAR"
    },
    {
      "bufferView": 3,
      "componentType": 5126,
      "count": 84,
      "max": [
        5.833333492279053
      ],
      "min": [
        0.0
      ],
      "type": "SCALAR"
    },
    {
      "bufferView": 4,
      "componentType": 5126,
      "count": 84,
      "max": [
        1.0080735683441162,
        0.9791254997253418,
        1.5131042003631592
      ],
      "min": [
        0.05199315771460533,
        0.9791254997253418,
        -0.4435749650001526
      ],
      "type": "VEC3"
    },
    {
      "bufferView": 3,
      "byteOffset": 336,
      "componentType": 5126,
      "count": 91,
      "max": [
        5.833333492279053
      ],
      "min": [
        0.0
      ],
      "type": "SCALAR"
    },
    {
      "bufferView": 5,
      "componentType": 5126,
      "count": 91,
      "max": [
        0.35948216915130615,
        0.0,
        0.00781977642327547,
        1.0
      ],
      "min": [
        0.0,
        -0.999086856842041,
        -0.0,
        0.04272741079330444
      ],
      "type": "VEC4"
    },
    {
      "bufferView": 3,
      "byteOffset": 700,
      "componentType": 5126,
      "count": 84,
      "max": [
        5.833333492279053
      ],
      "min": [
        0.0
      ],
      "type": "SCALAR"
    },
    {
      "bufferView": 5,
      "byteOffset": 1456,
      "componentType": 5126,
      "count": 84,
      "max": [
        0.0,
        0.0,
        -0.0,
        1.0
      ],
      "min": [
        0.0,
        -0.999086856842041,
        -0.0,
        0.042726706713438034
      ],
      "type": "VEC4"
    },
    {
      "bufferView": 3,
      "byteOffset": 1036,
      "componentType": 5126,
      "count": 17,
      "max": [
        5.833333492279053
      ],
      "min": [
        0.0
      ],
      "type": "SCALAR"
    },
    {
      "bufferView": 4,
      "byteOffset": 1008,
      "componentType": 5126,
      "count": 17,
      "max": [
        0.019453909248113632,
        1.0,
        0.6000000834465027
      ],
      "min": [
        0.019453909248113632,
        1.0,
        0.5999999642372131
      ],
      "type": "VEC3"
    }
  ],
  "animations": [
    {
      "channels": [
        {
          "sampler": 0,
          "target": {
            "node": 9,
            "path": "translation"
          }
        },
        {
          "sampler": 1,
          "target": {
            "node": 9,
            "path": "rotation"
          }
        },
        {
          "sampler": 2,
          "target": {
            "node": 3,
            "path": "rotation"
          }
        },
        {
          "sampler": 3,
          "target": {
            "node": 3,
            "path": "scale"
          }
        }
      ],
      "name": "Animation",
      "samplers": [
        {
          "input": 32,
          "interpolation": "LINEAR",
          "output": 33
        },
        {
          "input": 34,
          "interpolation": "LINEAR",
          "output": 35
        },
        {
          "input": 36,
          "interpolation": "LINEAR",
          "output": 37
        },
        {
          "input": 38,
          "interpolation": "LINEAR",
          "output": 39
        }
      ]
    }
  ],
  "asset": {
    "extras": {
      "author": "Three Fruits (https://sketchfab.com/threefruits)",
      "license": "CC-BY-4.0 (http://creativecommons.org/licenses/by/4.0/)",
      "source": "https://sketchfab.com/3d-models/game-ready-animated-simple-door-42b6ea93a5c64fca919d9102887ad79e",
      "title": "Game Ready - Animated Simple Door"
    },
    "generator": "Sketchfab-12.67.0",
    "version": "2.0"
  },
  "bufferViews": [
    {
      "buffer": 0,
      "byteLength": 6984,
      "name": "floatBufferViews",
      "target": 34963
    },
    {
      "buffer": 0,
      "byteLength": 8104,
      "byteOffset": 6984,
      "byteStride": 8,
      "name": "floatBufferViews",
      "target": 34962
    },
    {
      "buffer": 0,
      "byteLength": 24312,
      "byteOffset": 15088,
      "byteStride": 12,
      "name": "floatBufferViews",
      "target": 34962
    },
    {
      "buffer": 0,
      "byteLength": 1104,
      "byteOffset": 39400,
      "name": "floatBufferViews"
    },
    {
      "buffer": 0,
      "byteLength": 1212,
      "byteOffset": 40504,
      "byteStride": 12,
      "name": "floatBufferViews"
    },
    {
      "buffer": 0,
      "byteLength": 2800,
      "byteOffset": 41716,
      "byteStride": 16,
      "name": "floatBufferViews"
    }
  ],
  "buffers": [
    {
      "byteLength": 44516,
      "uri": "scene.bin"
    }
  ],
  "images": [
    {
      "uri": "textures/DoorTexture_baseColor.png"
    }
  ],
  "materials": [
    {
      "doubleSided": true,
      "name": "DoorTexture",
      "pbrMetallicRoughness": {
        "baseColorTexture": {
          "index": 0
        },
        "metallicFactor": 0.0,
        "roughnessFactor": 0.6
      }
    },
    {
      "doubleSided": true,
      "name": "Material.001",
      "pbrMetallicRoughness": {
        "baseColorTexture": {
          "index": 0
        },
        "metallicFactor": 0.0,
        "roughnessFactor": 0.6
      }
    }
  ],
  "meshes": [
    {
      "name": "Object_0",
      "primitives": [
        {
          "attributes": {
            "NORMAL": 1,
            "POSITION": 0,
            "TEXCOORD_0": 2
          },
          "indices": 3,
          "material": 0,
          "mode": 4
        }
      ]
    },
    {
      "name": "Object_1",
      "primitives": [
        {
          "attributes": {
            "NORMAL": 5,
            "POSITION": 4,
            "TEXCOORD_0": 6
          },
          "indices": 7,
          "material": 1,
          "mode": 4
        }
      ]
    },
    {
      "name": "Object_2",
      "primitives": [
        {
          "attributes": {
            "NORMAL": 9,
            "POSITION": 8,
            "TEXCOORD_0": 10
          },
          "indices": 11,
          "material": 1,
          "mode": 4
        }
      ]
    },
    {
      "name": "Object_3",
      "primitives": [
        {
          "attributes": {
            "NORMAL": 13,
            "POSITION": 12,
            "TEXCOORD_0": 14
          },
          "indices": 15,
          "material": 1,
          "mode": 4
        }
      ]
    },
    {
      "name": "Object_4",
      "primitives": [
        {
          "attributes": {
            "NORMAL": 17,
            "POSITION": 16,
            "TEXCOORD_0": 18
          },
          "indices": 19,
          "material": 1,
          "mode": 4
        }
      ]
    },
    {
      "name": "Object_5",
      "primitives": [
        {
          "attributes": {
            "NORMAL": 21,
            "POSITION": 20,
            "TEXCOORD_0": 22
          },
          "indices": 23,
          "material": 1,
          "mode": 4
        }
      ]
    },
    {
      "name": "Object_6",
      "primitives": [
        {
          "attributes": {
            "NORMAL": 25,
            "POSITION": 24,
            "TEXCOORD_0": 26
          },
          "indices": 27,
          "material": 1,
          "mode": 4
        }
      ]
    },
    {
      "name": "Object_7",
      "primitives": [
        {
          "attributes": {
            "NORMAL": 29,
            "POSITION": 28,
            "TEXCOORD_0": 30
          },
          "indices": 31,
          "material": 1,
          "mode": 4
        }
      ]
    }
  ],
  "nodes": [
    {
      "children": [
        1
      ],
      "matrix": [
        1.0,
        0.0,
        0.0,
        0.0,
        0.0,
        2.220446049250313e-16,
        -1.0,
        0.0,
        0.0,
        1.0,
        2.220446049250313e-16,
        0.0,
        0.0,
        0.0,
        0.0,
        1.0
      ],
      "name": "Sketchfab_model"
    },
    {
      "children": [
        2
      ],
      "name": "root"
    },
    {
      "children": [
        3,
        9,
        11,
        13,
        15,
        17
      ],
      "matrix": [
        1.0,
        0.0,
        0.0,
        0.0,
        0.0,
        2.220446049250313e-16,
        1.0,
        0.0,
        0.0,
        -1.0,
        2.220446049250313e-16,
        0.0,
        0.0,
        0.0,
        0.0,
        1.0
      ],
      "name": "GLTF_SceneRootNode"
    },
    {
      "children": [
        4,
        5,
        7
      ],
      "name": "Cube_2",
      "scale": [
        0.019453909248113632,
        1.0,
        0.6000000238418579
      ],
      "translation": [
        0.028839822858572006,
        0.8961337208747864,
        0.5355636477470398
      ]
    },
    {
      "mesh": 0,
      "name": "Object_4"
    },
    {
      "children": [
        6
      ],
      "matrix": [
        0.38299602270126343,
        0.0,
        0.0,
        0.0,
        0.0,
        0.12049328535795212,
        0.0,
        0.0,
        0.0,
        0.0,
        0.044125963002443314,
        0.0,
        0.8654650449752808,
        0.015134096145629883,
        -1.6318975687026978,
        1.0
      ],
      "name": "Cube.001_0"
    },
    {
      "mesh": 1,
      "name": "Object_6"
    },
    {
      "children": [
        8
      ],
      "matrix": [
        -0.38299602269641825,
        0.0,
        1.926509882566757e-06,
        0.0,
        0.0,
        0.12049328535795212,
        0.0,
        0.0,
        -2.2195818954571538e-07,
        0.0,
        -0.044125963001885087,
        0.0,
        -3.830404281616211,
        0.015134096145629883,
        -1.6318976879119873,
        1.0
      ],
      "name": "Cube.003_1"
    },
    {
      "mesh": 2,
      "name": "Object_8"
    },
    {
      "children": [
        10
      ],
      "name": "Cube.002_3",
      "scale": [
        0.007450769655406475,
        0.12049328535795212,
        0.026475578546524048
      ],
      "translation": [
        0.05199315771460533,
        0.9791254997253418,
        -0.4435749650001526
      ]
    },
    {
      "mesh": 3,
      "name": "Object_10"
    },
    {
      "children": [
        12
      ],
      "matrix": [
        0.07759398221969604,
        0.0,
        0.0,
        0.0,
        0.0,
        0.07759398221969604,
        0.0,
        0.0,
        0.0,
        0.0,
        0.07759398221969604,
        0.0,
        -0.058140069246292114,
        0.07759398221969604,
        -0.5881577134132385,
        1.0
      ],
      "name": "Cube.005_4"
    },
    {
      "mesh": 4,
      "name": "Object_12"
    },
    {
      "children": [
        14
      ],
      "matrix": [
        0.006268233526498079,
        0.0,
        0.0,
        0.0,
        0.0,
        0.08486247807741165,
        0.0,
        0.0,
        0.0,
        0.0,
        0.006268233526498079,
        0.0,
        0.025722142308950424,
        1.8176565170288086,
        0.5418319702148438,
        1.0
      ],
      "name": "Cube.006_5"
    },
    {
      "mesh": 5,
      "name": "Object_14"
    },
    {
      "children": [
        16
      ],
      "matrix": [
        0.006268233526498079,
        0.0,
        0.0,
        0.0,
        0.0,
        0.08486247807741165,
        0.0,
        0.0,
        0.0,
        0.0,
        0.006268233526498079,
        0.0,
        0.025722142308950424,
        0.2787191867828369,
        0.5418319702148438,
        1.0
      ],
      "name": "Cube.007_6"
    },
    {
      "mesh": 6,
      "name": "Object_16"
    },
    {
      "children": [
        18
      ],
      "matrix": [
        0.006268233526498079,
        0.0,
        0.0,
        0.0,
        0.0,
        0.08486247807741165,
        0.0,
        0.0,
        0.0,
        0.0,
        0.006268233526498079,
        0.0,
        0.025722142308950424,
        1.1054792404174805,
        0.5418319702148438,
        1.0
      ],
      "name": "Cube.008_7"
    },
    {
      "mesh": 7,
      "name": "Object_18"
    }
  ],
  "samplers": [
    {
      "magFilter": 9729,
      "minFilter": 9987,
      "wrapS": 10497,
      "wrapT": 10497
    }
  ],
  "scene": 0,
  "scenes": [
    {
      "name": "Sketchfab_Scene",
      "nodes": [
        0
      ]
    }
  ],
  "textures": [
    {
      "sampler": 0,
      "source": 0
    }
  ]
}
